<?xml version="1.0" encoding="UTF-8"?>
<svg id="Layer_1" data-name="Layer 1" xmlns="http://www.w3.org/2000/svg" width="1787.21" height="1787.21" viewBox="0 0 1787.21 1787.21">
  <defs>
    <style>
      .cls-1 {
        fill: #000;
      }

      .cls-1, .cls-2 {
        stroke: #ffffff;
        stroke-miterlimit: 10;
      }

      .cls-2 {
        fill: #ffffff;
      }
    </style>
  </defs>
  <path class="cls-2" d="m1510.65,1550.42h-244.04c-33.6,0-63.12-21.71-72.35-53.21l-26.04-88.85c-9.23-31.49-38.76-53.21-72.35-53.21h-372.88c-33.6,0-63.12,21.71-72.35,53.21l-26.04,88.85c-9.23,31.49-38.76,53.21-72.35,53.21h-244.04c-49.99,0-86.09-46.65-72.35-93.52l87.04-297.01,57.21-195.27,28.62-97.64,28.61-97.63,57.22-195.27,57.22-195.28,41.63-142.06c9.23-31.49,38.76-53.21,72.35-53.21h487.33c33.6,0,63.12,21.71,72.35,53.21l41.63,142.06,57.22,195.28,57.22,195.27,28.61,97.63,28.62,97.64,57.21,195.27,87.04,297.01c13.73,46.87-22.36,93.52-72.35,93.52Z"/>
  <path class="cls-1" d="m938.94,906.57l82.62,80.55c16.3,15.89,16.3,41.65,0,57.53l-82.62,80.55c-16.3,15.89-42.72,15.89-59.01,0l-82.62-80.55c-16.3-15.89-16.3-41.65,0-57.53l82.62-80.55c16.3-15.89,42.72-15.89,59.01,0Z"/>
</svg>