<?xml version="1.0" encoding="UTF-8"?>
<svg id="Layer_1" data-name="Layer 1" xmlns="http://www.w3.org/2000/svg"
  viewBox="0 0 1787.21 1787.21">
  <defs>
    <style>
      .cls-1 {
      fill: #000000;
      }

      .cls-1, .cls-2 {
      stroke: #ffffff;
      stroke-miterlimit: 10;
      }

      .cls-2 {
      fill: #ffffff;
      }
    </style>
  </defs>
  <path class="cls-2"
    d="m1316.65,1569.11h-186.66c-25.7,0-48.28-17.03-55.34-41.74l-19.92-69.7c-7.06-24.71-29.64-41.74-55.34-41.74h-285.21c-25.7,0-48.28,17.03-55.34,41.74l-19.92,69.7c-7.06,24.71-29.64,41.74-55.34,41.74h-186.66c-38.24,0-65.85-36.6-55.34-73.37l66.58-233.01,43.76-153.19,21.89-76.6,21.88-76.59,43.77-153.19,43.77-153.2,31.84-111.45c7.06-24.71,29.64-41.74,55.34-41.74h372.75c25.7,0,48.28,17.03,55.34,41.74l31.84,111.45,43.77,153.2,43.77,153.19,21.88,76.59,21.89,76.6,43.76,153.19,66.58,233.01c10.51,36.77-17.1,73.37-55.34,73.37Z" />
  <rect class="cls-1" x="780.18" y="1073.15" width="153.2" height="153.2" rx="31.92" ry="31.92"
    transform="translate(649.62 2568.58) rotate(-135)" />
</svg>