<?xml version="1.0" encoding="UTF-8"?>
<svg id="Layer_1" data-name="Layer 1" xmlns="http://www.w3.org/2000/svg"
  viewBox="0 0 2779.12 2059.13">
  <defs>
    <style>
      .cls-1 {
      fill: #ffffff;
      stroke: #ffffff;
      stroke-miterlimit: 10;
      }
    </style>
  </defs>
  <path class="cls-1"
    d="m1582.97,1887.69h0c0,22.53-18.26,40.79-40.79,40.79h-28.96v-17.91c23.9-6.15,47.18-13.82,69.75-22.88Z" />
  <path class="cls-1" d="m1513.22,1910.57v17.91h-140.32c48.44-.15,95.45-6.36,140.32-17.91Z" />
  <path class="cls-1"
    d="m1513.22,791.6c38.52,0,69.75,31.23,69.75,69.75v640.81c-.41-.01-.83-.01-1.25-.01-40.65,0-73.6,32.96-73.6,73.61s32.95,73.6,73.6,73.6c.42,0,.84,0,1.25-.01v238.34c-22.57,9.06-45.85,16.73-69.75,22.88-44.87,11.55-91.88,17.76-140.32,17.91h-1.79s-3.68-.01-3.68-.01c-47.77-.3-94.14-6.5-138.43-17.9-50.42-12.98-98.13-32.69-142.11-58.15-32.81-18.97-63.54-41.13-91.78-66.06-17.81-15.71-34.62-32.52-50.33-50.33-24.93-28.24-47.09-58.97-66.06-91.78-25.45-43.98-45.17-91.69-58.14-142.11-11.69-45.42-17.91-93.03-17.91-142.1h0c0-49.08,6.22-96.7,17.91-142.12,12.98-50.41,32.7-98.13,58.15-142.11,18.97-32.8,41.12-63.53,66.05-91.76,15.71-17.82,32.54-34.64,50.35-50.35,28.23-24.92,58.96-47.08,91.76-66.04,43.98-25.46,91.69-45.18,142.11-58.15,45.42-11.69,93.04-17.91,142.11-17.91h0s71.06-.01,71.06-.01h71.05s0,.01,0,.01Z" />
</svg>