<?xml version="1.0" encoding="UTF-8"?>
<svg id="Layer_1" data-name="Layer 1" xmlns="http://www.w3.org/2000/svg" width="1787.21" height="1787.21" viewBox="0 0 1787.21 1787.21">
  <defs>
    <style>
      .cls-1 {
        fill: #ffffff;
        stroke: #ffffff;
        stroke-miterlimit: 10;
      }
    </style>
  </defs>
  <path class="cls-1" d="m1310.29,1527.98h0c0,27.02-23.22,48.92-51.87,48.92h-36.83v-21.48c30.39-7.38,60-16.57,88.7-27.44Z"/>
  <path class="cls-1" d="m1221.58,1555.42v21.48h-178.45c61.6-.18,121.39-7.63,178.45-21.48Z"/>
  <path class="cls-1" d="m1221.58,213.43c48.99,0,88.7,37.45,88.7,83.65v768.53c-.52-.01-1.06-.01-1.59-.01-51.7,0-93.6,39.53-93.6,88.28s41.9,88.27,93.6,88.27c.53,0,1.07,0,1.59-.01v285.84c-28.7,10.87-58.31,20.06-88.7,27.44-57.06,13.85-116.85,21.3-178.45,21.48h-2.28s-4.68-.01-4.68-.01c-60.75-.36-119.72-7.8-176.05-21.47-64.12-15.57-124.8-39.21-180.73-69.74-41.73-22.75-80.81-49.33-116.72-79.23-22.65-18.84-44.03-39-64.01-60.36-31.7-33.87-59.89-70.72-84.01-110.07-32.37-52.75-57.44-109.96-73.94-170.43-14.87-54.47-22.78-111.57-22.78-170.42h0c0-58.86,7.91-115.97,22.78-170.45,16.51-60.46,41.59-117.69,73.95-170.43,24.12-39.34,52.29-76.19,84-110.05,19.98-21.37,41.38-41.54,64.03-60.39,35.9-29.89,74.98-56.46,116.7-79.2,55.93-30.53,116.61-54.18,180.73-69.74,57.76-14.02,118.32-21.48,180.73-21.48h0s90.37-.01,90.37-.01h90.36s0,.01,0,.01Z"/>
</svg>