<?xml version="1.0" encoding="UTF-8"?>
<svg id="Layer_1" data-name="Layer 1" xmlns="http://www.w3.org/2000/svg" width="1787.21" height="1787.21" viewBox="0 0 1787.21 1787.21">
  <defs>
    <style>
      .cls-1 {
        fill: #ffffff;
        stroke: #ffffff;
        stroke-miterlimit: 10;
      }
    </style>
  </defs>
  <path class="cls-1" d="m1419.06,288.04v1169.73c0,53.9-39.53,97.6-88.3,97.6h-220.4V190.44h220.4c48.76,0,88.3,43.7,88.3,97.6Z"/>
  <path class="cls-1" d="m647.32,190.44v1364.94h-226.94c-45.15,0-81.75-40.46-81.75-90.37V280.81c0-49.91,36.6-90.37,81.75-90.37h226.94Z"/>
  <path class="cls-1" d="m1110.36,481.07v1074.31l-154.35-79.54-154.34-79.52v-11.57h-21.35c-.73,0-1.44-.18-2.1-.51l-130.89-67.44V190.44l154.34,96.88,117.48,73.73,36.86,23.14,154.35,96.88Z"/>
  <path class="cls-1" d="m801.66,1384.75v11.57l-2.1-1.08c-4.83-2.49-3.22-10.48,2.1-10.48h0Z"/>
</svg>