<?xml version="1.0" encoding="UTF-8"?>
<svg id="Layer_1" data-name="Layer 1" xmlns="http://www.w3.org/2000/svg" viewBox="0 0 1787.21 1787.21">
  <defs>
    <style>
      .cls-1 {
        fill: #ffffff;
        stroke: #ffffff;
        stroke-miterlimit: 10;
      }
    </style>
  </defs>
  <path class="cls-1" d="m1315.35,526.83v929.49c0,42.83-34.72,77.56-77.56,77.56h-193.59V449.27h193.59c42.83,0,77.56,34.72,77.56,77.56Z"/>
  <path class="cls-1" d="m637.48,449.27v1084.6h-199.34c-39.66,0-71.81-32.15-71.81-71.81v-940.98c0-39.66,32.15-71.81,71.81-71.81h199.34Z"/>
  <path class="cls-1" d="m1044.2,680.21v853.66l-135.58-63.2-135.57-63.19v-9.19h-18.75c-.64,0-1.27-.14-1.85-.41l-114.97-53.59V449.27l135.57,76.98,103.19,58.59,32.38,18.39,135.58,76.98Z"/>
  <path class="cls-1" d="m773.05,1398.29v9.19l-1.85-.86c-4.24-1.98-2.83-8.33,1.85-8.33h0Z"/>
</svg>