<?xml version="1.0" encoding="UTF-8"?>
<svg id="Layer_1" data-name="Layer 1" xmlns="http://www.w3.org/2000/svg" width="1787.21" height="1787.21" viewBox="0 0 1787.21 1787.21">
  <defs>
    <style>
      .cls-1 {
        fill: #000;
      }

      .cls-1, .cls-2 {
        stroke: #ffffff;
        stroke-miterlimit: 10;
      }

      .cls-2 {
        fill: #ffffff;
      }
    </style>
  </defs>
  <rect class="cls-2" x="803.38" y="192.73" width="157.38" height="1360.34" rx="51.75" ry="51.75"/>
  <path class="cls-2" d="m1346.42,365.37l54.33,53.16c15.73,15.39,15.73,40.34,0,55.73l-926.07,906.17c-15.73,15.39-41.23,15.39-56.96,0l-54.33-53.16c-15.73-15.39-15.73-40.34,0-55.73l926.07-906.17c15.73-15.39,41.23-15.39,56.96,0Z"/>
  <path class="cls-2" d="m1400.75,1327.28l-54.33,53.16c-15.73,15.39-41.23,15.39-56.96,0L363.39,474.26c-15.73-15.39-15.73-40.34,0-55.73l54.33-53.16c15.73-15.39,41.23-15.39,56.96,0l926.07,906.17c15.73,15.39,15.73,40.34,0,55.73Z"/>
  <rect class="cls-2" x="805.07" y="177.8" width="154" height="1390.21" rx="51.75" ry="51.75" transform="translate(9.17 1754.98) rotate(-90)"/>
  <path class="cls-1" d="m964.88,900.77l-54.33,53.16c-15.73,15.39-41.23,15.39-56.96,0l-54.33-53.16c-15.73-15.39-15.73-40.34,0-55.73l54.33-53.16c15.73-15.39,41.23-15.39,56.96,0l54.33,53.16c15.73,15.39,15.73,40.34,0,55.73Z"/>
</svg>