<?xml version="1.0" encoding="UTF-8"?>
<svg id="Layer_1" data-name="Layer 1" xmlns="http://www.w3.org/2000/svg" width="1787.21" height="1787.21" viewBox="0 0 1787.21 1787.21">
  <defs>
    <style>
      .cls-1 {
        fill: #ffffff;
      }

      .cls-1, .cls-2 {
        stroke: #ffffff;
        stroke-miterlimit: 10;
      }

      .cls-2 {
        fill: #ffffff;
      }
    </style>
  </defs>
  <path class="cls-2" d="m703.16,993.94v536.85c0,25-19.34,45.26-43.19,45.26h-98.78c-23.85,0-43.19-20.26-43.19-45.26v-536.85h185.16Z"/>
  <path class="cls-2" d="m703.16,217.79v776.15h-185.16V324.03c0-58.68,45.39-106.24,101.38-106.24h83.77Z"/>
  <path class="cls-2" d="m888.33,221.75v190.07h-185.17v-115.22c54.02-39.02,117.06-65.35,185.17-74.85Z"/>
  <path class="cls-2" d="m1372.67,665.61c0,46.79-6.84,91.9-19.56,134.29h-94.45v-194.03h110.23c2.5,19.54,3.78,39.49,3.78,59.74Z"/>
  <rect class="cls-2" x="1073.49" y="605.87" width="185.17" height="194.03"/>
  <rect class="cls-2" x="888.33" y="605.87" width="185.16" height="194.03"/>
  <path class="cls-2" d="m1368.89,605.87h-110.23v-194.05h38.8c37.24,56.63,62.36,122.67,71.43,194.05Z"/>
  <path class="cls-2" d="m1297.46,411.82h-38.8v-50.74c14.06,15.88,27.04,32.84,38.8,50.74Z"/>
  <path class="cls-2" d="m888.33,1109.46v3.96h-185.17v-78.81c54.02,39.02,117.06,65.35,185.17,74.85Z"/>
  <path class="cls-2" d="m1258.66,799.9v170.23c-7.28,8.23-14.87,16.18-22.72,23.81h-162.44v-194.05h185.17Z"/>
  <path class="cls-2" d="m1353.11,799.9c-19.22,64.16-51.85,122.11-94.45,170.23v-170.23h94.45Z"/>
  <path class="cls-2" d="m1073.49,238.29v173.54h-185.16v-190.07c18.65-2.61,37.67-3.96,57.01-3.96,44.64,0,87.69,7.17,128.15,20.5Z"/>
  <path class="cls-2" d="m1258.66,361.08v50.74h-185.17v-173.54c71.7,23.58,135.28,66.44,185.17,122.8Z"/>
  <rect class="cls-2" x="1073.49" y="411.82" width="185.17" height="194.05"/>
  <rect class="cls-2" x="888.33" y="411.82" width="185.16" height="194.05"/>
  <rect class="cls-2" x="703.16" y="411.82" width="185.17" height="194.05"/>
  <rect class="cls-2" x="703.16" y="605.87" width="185.17" height="194.03"/>
  <path class="cls-2" d="m703.16,799.9v194.05h185.17v-194.05h-185.17Zm97.54,180.9c-38.71,0-70.1-32.89-70.1-73.46s31.39-73.48,70.1-73.48,70.11,32.89,70.11,73.48-31.39,73.46-70.11,73.46Z"/>
  <rect class="cls-2" x="888.33" y="799.9" width="185.16" height="194.05"/>
  <path class="cls-2" d="m888.33,993.94v115.52c-68.11-9.5-131.15-35.83-185.17-74.85v-40.66h185.17Z"/>
  <path class="cls-1" d="m703.16,296.6v738c-17.08-12.33-33.27-25.93-48.42-40.66-84.11-81.78-136.74-198.62-136.74-328.34,0-153.1,73.31-288.25,185.16-369Z"/>
  <path class="cls-2" d="m1073.49,993.94v98.98c-40.46,13.33-83.51,20.5-128.15,20.5-19.34,0-38.36-1.35-57.01-3.96v-115.52h185.16Z"/>
  <path class="cls-2" d="m1235.93,993.94c-45.92,44.65-101.22,78.84-162.44,98.98v-98.98h162.44Z"/>
  <path class="cls-2" d="m888.33,217.79v3.96c-68.11,9.5-131.15,35.83-185.17,74.85v-78.81h185.17Z"/>
  <path class="cls-2" d="m945.34,1113.42h-57.01v-3.96c18.65,2.61,37.67,3.96,57.01,3.96Z"/>
  <path class="cls-2" d="m945.34,217.79c-19.34,0-38.36,1.35-57.01,3.96v-3.96h57.01Z"/>
</svg>