<?xml version="1.0" encoding="UTF-8"?>
<svg id="Layer_1" data-name="Layer 1" xmlns="http://www.w3.org/2000/svg"
  viewBox="0 0 2822.58 2609.15">
  <defs>
    <style>
      .cls-1 {
      fill: #ffffff;
      }

      .cls-1, .cls-2 {
      stroke: #ffffff;
      stroke-miterlimit: 10;
      }

      .cls-2 {
      fill: #ffffff;
      }
    </style>
  </defs>
  <path class="cls-2"
    d="m1190.51,1298.59v558.6c0,26.01-20.63,47.09-46.08,47.09h-105.38c-25.45,0-46.08-21.09-46.08-47.09v-558.6h197.54Z" />
  <path class="cls-2"
    d="m1190.51,490.99v807.61h-197.54v-697.06c0-61.05,48.43-110.55,108.16-110.55h89.38Z" />
  <path class="cls-2" d="m1388.07,495.11v197.77h-197.55v-119.89c57.64-40.61,124.89-68,197.55-77.89Z" />
  <path class="cls-2"
    d="m1904.8,956.95c0,48.69-7.3,95.62-20.87,139.74h-100.77v-201.89h117.61c2.67,20.33,4.03,41.09,4.03,62.16Z" />
  <rect class="cls-2" x="1585.61" y="894.79" width="197.55" height="201.89" />
  <rect class="cls-2" x="1388.07" y="894.79" width="197.54" height="201.89" />
  <path class="cls-2"
    d="m1900.77,894.79h-117.61v-201.91h41.4c39.73,58.92,66.53,127.64,76.21,201.91Z" />
  <path class="cls-2" d="m1824.56,692.88h-41.4v-52.8c15,16.52,28.85,34.17,41.4,52.8Z" />
  <path class="cls-2" d="m1388.07,1418.79v4.12h-197.55v-82.01c57.64,40.61,124.89,68,197.55,77.89Z" />
  <path class="cls-2"
    d="m1783.16,1096.68v177.13c-7.77,8.57-15.86,16.84-24.24,24.78h-173.31v-201.91h197.55Z" />
  <path class="cls-2" d="m1883.93,1096.68c-20.5,66.76-55.31,127.06-100.77,177.13v-177.13h100.77Z" />
  <path class="cls-2"
    d="m1585.61,512.31v180.57h-197.54v-197.77c19.89-2.71,40.19-4.12,60.82-4.12,47.63,0,93.56,7.46,136.72,21.33Z" />
  <path class="cls-2"
    d="m1783.16,640.08v52.8h-197.55v-180.57c76.5,24.54,144.33,69.14,197.55,127.77Z" />
  <rect class="cls-2" x="1585.61" y="692.88" width="197.55" height="201.91" />
  <rect class="cls-2" x="1388.07" y="692.88" width="197.54" height="201.91" />
  <rect class="cls-2" x="1190.51" y="692.88" width="197.55" height="201.91" />
  <rect class="cls-2" x="1190.51" y="894.79" width="197.55" height="201.89" />
  <path class="cls-2"
    d="m1190.51,1096.68v201.91h197.55v-201.91h-197.55Zm104.07,188.23c-41.3,0-74.79-34.23-74.79-76.44s33.49-76.45,74.79-76.45,74.8,34.23,74.8,76.45-33.49,76.44-74.8,76.44Z" />
  <rect class="cls-2" x="1388.07" y="1096.68" width="197.54" height="201.91" />
  <path class="cls-2"
    d="m1388.07,1298.59v120.2c-72.66-9.89-139.92-37.28-197.55-77.89v-42.31h197.55Z" />
  <path class="cls-1"
    d="m1190.51,572.99v767.91c-18.22-12.83-35.49-26.98-51.66-42.31-89.73-85.09-145.88-206.67-145.88-341.64,0-159.3,78.21-299.93,197.54-383.96Z" />
  <path class="cls-2"
    d="m1585.61,1298.59v102.99c-43.16,13.87-89.09,21.33-136.72,21.33-20.63,0-40.93-1.41-60.82-4.12v-120.2h197.54Z" />
  <path class="cls-2" d="m1758.92,1298.59c-48.99,46.46-107.99,82.04-173.31,102.99v-102.99h173.31Z" />
  <path class="cls-2" d="m1388.07,490.99v4.12c-72.66,9.89-139.92,37.28-197.55,77.89v-82.01h197.55Z" />
  <path class="cls-2" d="m1448.89,1422.91h-60.82v-4.12c19.89,2.71,40.19,4.12,60.82,4.12Z" />
  <path class="cls-2" d="m1448.89,490.99c-20.63,0-40.93,1.41-60.82,4.12v-4.12h60.82Z" />
</svg>